# xmcd
#
# Track frame offsets: 
#        150
#        22618
#        45560
#        62070
#        77228
#        99452
#        121030
#        141151
#        160315
#        182944
#
# Disc length: 2742 seconds
#
# Revision: 0
# Processed by: cddbd v1.5.2PL0 Copyright (c) Steve Scherf et al.
# Submitted via: ExactAudioCopy v1.0b3
#
DISCID=790ab40a
DTITLE=Thanh Tuyen, Che Linh - Chieu Mua Bien Gioi
DYEAR=1996
DGENRE=
TTITLE0=Thanh Tuyen - Chieu mua bien gioi
TTITLE1=Che Linh - Nho nhau hoai
TTITLE2=Thanh Tuyen, Quang Binh - Ao trang Go Cong
TTITLE3=Thanh Tuyen - Ly Cai Mon
TTITLE4=Che Linh - Cuoi duong ky niem
TTITLE5=Thanh Tuyen - Ngan thu vinh biet
TTITLE6=Che Linh - Nua dem bien gioi
TTITLE7=Thanh Tuyen - Buon khong em
TTITLE8=Che Linh - Em oi dung den nua
TTITLE9=Thanh Tuyen - Goi nho que huong
EXTD=
EXTT0=
EXTT1=
EXTT2=
EXTT3=
EXTT4=
EXTT5=
EXTT6=
EXTT7=
EXTT8=
EXTT9=
PLAYORDER=
